<?xml version="1.0" encoding="utf-8"?>
<!-- Generator: Adobe Illustrator 26.2.0, SVG Export Plug-In . SVG Version: 6.00 Build 0)  -->
<svg version="1.1" id="Layer_1" xmlns="http://www.w3.org/2000/svg" xmlns:xlink="http://www.w3.org/1999/xlink" x="0px" y="0px"
	 viewBox="0 0 300 78.2" style="enable-background:new 0 0 300 78.2;" xml:space="preserve">
<style type="text/css">
	.st0{fill:#471266;}
	.st1{fill:#9C47F5;}
</style>
<g>
	<g>
		<path class="st0" d="M112.3,46.9V2.5c0-1.1,0.7-1.8,1.8-1.8h29.4c1.1,0,1.8,0.7,1.8,1.8v6.4c0,1.1-0.7,1.8-1.8,1.8h-20.3v9.2h6.9
			h11.8c1.1,0,1.8,0.7,1.8,1.8V28c0,1.1-0.7,1.8-1.8,1.8h-18.7V39h20.3c1.1,0,1.8,0.7,1.8,1.8v6.3c0,1.1-0.7,1.8-1.8,1.8H114
			C112.9,48.7,112.3,48,112.3,46.9"/>
		<path class="st0" d="M157.1,46.9V2.5c0-1.1,0.7-1.8,1.8-1.8h7.3c1.1,0,1.8,0.7,1.8,1.8v36.3h20.2c1.1,0,1.8,0.7,1.8,1.8v6.3
			c0,1.1-0.7,1.8-1.8,1.8H159C157.7,48.7,157.1,48,157.1,46.9"/>
		<path class="st0" d="M198.7,46.9V2.5c0-1.1,0.7-1.8,1.8-1.8h7.3c1.1,0,1.8,0.7,1.8,1.8v44.4c0,1.1-0.7,1.8-1.8,1.8h-7.3
			C199.4,48.7,198.7,48,198.7,46.9"/>
		<path class="st0" d="M232.3,46.9V10.6h-12.2c-1.1,0-1.8-0.7-1.8-1.8V2.5c0-1.1,0.7-1.8,1.8-1.8h35.2c1.1,0,1.8,0.7,1.8,1.8v6.4
			c0,1.1-0.7,1.8-1.8,1.8h-12.2V47c0,1.1-0.7,1.8-1.8,1.8H234C233,48.7,232.3,48,232.3,46.9"/>
		<path class="st0" d="M266.1,46.9V2.5c0-1.1,0.7-1.8,1.8-1.8h29.4c1.1,0,1.8,0.7,1.8,1.8v6.4c0,1.1-0.7,1.8-1.8,1.8H277v9.2h18.7
			c1.1,0,1.8,0.7,1.8,1.8V28c0,1.1-0.7,1.8-1.8,1.8H277V39h20.3c1.1,0,1.8,0.7,1.8,1.8v6.3c0,1.1-0.7,1.8-1.8,1.8h-29.4
			C266.7,48.7,266.1,48,266.1,46.9"/>
	</g>
	<g>
		<path class="st1" d="M149.2,77.3h-2.1c-0.5,0-0.8-0.3-0.8-0.8V56.9c0-0.5,0.3-0.8,0.8-0.8h2.1c0.5,0,0.8,0.3,0.8,0.8v19.6
			C150,77,149.7,77.3,149.2,77.3"/>
		<path class="st1" d="M120.2,55.9h-0.4c-0.4,0-0.8,0.3-0.8,0.8v2c0,0.5,0.3,0.7,0.8,0.7h0.4c2.7,0,6.8,1.7,6.8,7.1
			c0,5.3-4.1,7.1-6.8,7.1h-4v-17c0-0.5-0.3-0.8-0.8-0.8h-2.1c-0.5,0-0.8,0.3-0.8,0.8v19.6c0,0.5,0.3,0.8,0.8,0.8h1.4h0.6h4.8
			c6.2,0,10.4-4.3,10.4-10.6C130.6,60.2,126.4,55.9,120.2,55.9"/>
		<path class="st1" d="M176.8,77.6c-6.3,0-10.6-4.6-10.6-10.8c0-6.3,4.4-10.8,10.6-10.8c3.4,0,6.3,1.4,8.1,3.6
			c0.3,0.4,0.2,0.8-0.2,1.1l-1.7,1.2c-0.4,0.3-0.7,0.2-1.1-0.1c-1.3-1.5-3.2-2.2-5.1-2.2c-4.2,0-7,3.1-7,7.2c0,4.2,2.8,7.2,7,7.2
			c3,0,5.5-1.8,6-5h-5.5c-0.5,0-0.8-0.3-0.8-0.8v-1.8c0-0.5,0.3-0.8,0.8-0.8h8.8c0.5,0,0.8,0.3,0.8,0.8v0.8
			C186.8,73.2,183,77.6,176.8,77.6"/>
		<path class="st1" d="M205.9,77.3h-2.1c-0.5,0-0.8-0.3-0.8-0.8V56.9c0-0.5,0.3-0.8,0.8-0.8h2.1c0.5,0,0.8,0.3,0.8,0.8v19.6
			C206.6,77,206.4,77.3,205.9,77.3"/>
		<path class="st1" d="M238.7,56.9v1.8c0,0.5-0.3,0.8-0.8,0.8h-5.7v17.1c0,0.5-0.3,0.8-0.8,0.8h-2.1c-0.5,0-0.8-0.3-0.8-0.8V59.5
			h-5.7c-0.5,0-0.8-0.3-0.8-0.8v-1.8c0-0.5,0.3-0.8,0.8-0.8h15.1C238.4,56.1,238.7,56.4,238.7,56.9"/>
		<path class="st1" d="M298.2,74c0.5,0,0.8,0.3,0.8,0.8v1.8c0,0.5-0.3,0.8-0.8,0.8h-12.5c-0.5,0-0.8-0.3-0.8-0.8V56.9
			c0-0.5,0.3-0.8,0.8-0.8h2.1c0.5,0,0.8,0.3,0.8,0.8V74H298.2z"/>
		<path class="st1" d="M257,69.3l-0.1,0.3L257,69.3z"/>
		<path class="st1" d="M259.3,72.2c0,0.1-0.1,0.2-0.1,0.3c0,0.1,0,0.3,0.1,0.4s0.2,0.3,0.4,0.3c0.1,0,0.2,0,0.2,0h4.6l1.4,3.4
			c0.2,0.4,0.5,0.6,0.9,0.6h2.2c0.6,0,0.8-0.4,0.6-0.9l-8-19.6c-0.2-0.4-0.5-0.6-0.9-0.6h-1.5c-0.4,0-0.7,0.2-0.9,0.6l-8,19.6
			c-0.2,0.5,0,0.9,0.6,0.9h2.2c0.4,0,0.7-0.2,0.9-0.6l5.9-14.8l3.2,8.1h-2.5c-0.2,0-0.4,0.1-0.5,0.2s-0.2,0.2-0.2,0.3L259.3,72.2z"
			/>
	</g>
	<g>
		<path class="st1" d="M41.3,54.5c0.1,0.1,0.2,0.1,0.4,0.1c0.1,0,0.2,0,0.3-0.1l20.3-20.2c0.2-0.2,0.3-0.4,0.2-0.6L45.1,1.2
			C45,1,44.8,0.9,44.6,0.9S44.2,1,44.1,1.2L23.9,33.9c-0.1,0.2,0,0.5,0.1,0.6L41.3,54.5z"/>
		<path class="st1" d="M90.7,11.2c-0.2-0.1-0.5-0.1-0.6,0l-56,55.7c-0.2,0.1-0.3,0.4-0.2,0.6s0.3,0.4,0.5,0.4h46.8
			c0.2,0,0.4-0.1,0.5-0.3l9.2-55.7C90.9,11.6,90.8,11.4,90.7,11.2"/>
		<path class="st1" d="M39.2,57.1c0-0.2-0.1-0.3-0.2-0.4L1.2,11.2C1,11,0.7,11,0.5,11.2c-0.2,0.1-0.3,0.4-0.2,0.6l9.9,55.7
			c0.1,0.2,0.3,0.3,0.5,0.3h18c0.1,0,0.2,0,0.3-0.1l10-10.2C39.1,57.4,39.2,57.3,39.2,57.1"/>
		<path class="st1" d="M81.2,71H10.4c-0.3,0-0.5,0.3-0.5,0.7v4.6c0,0.4,0.2,0.7,0.5,0.7h70.8c0.3,0,0.5-0.3,0.5-0.7v-4.6
			C81.7,71.3,81.5,71,81.2,71"/>
	</g>
</g>
</svg>
